<?xml version="1.0" encoding="UTF-8" standalone="no"?>
<!-- Created with Inkscape (http://www.inkscape.org/) -->

<svg
   xmlns:dc="http://purl.org/dc/elements/1.1/"
   xmlns:cc="http://creativecommons.org/ns#"
   xmlns:rdf="http://www.w3.org/1999/02/22-rdf-syntax-ns#"
   xmlns:svg="http://www.w3.org/2000/svg"
   xmlns="http://www.w3.org/2000/svg"
   xmlns:sodipodi="http://sodipodi.sourceforge.net/DTD/sodipodi-0.dtd"
   xmlns:inkscape="http://www.inkscape.org/namespaces/inkscape"
   width="46.858696mm"
   height="41.342567mm"
   viewBox="0 0 46.858696 41.342567"
   version="1.1"
   id="svg5941"
   inkscape:version="0.92.4 (5da689c313, 2019-01-14)"
   sodipodi:docname="scissors.svg">
  <defs
     id="defs5935" />
  <sodipodi:namedview
     id="base"
     pagecolor="#ffffff"
     bordercolor="#666666"
     borderopacity="1.0"
     inkscape:pageopacity="0.0"
     inkscape:pageshadow="2"
     inkscape:zoom="0.35"
     inkscape:cx="-455.73386"
     inkscape:cy="-61.872313"
     inkscape:document-units="mm"
     inkscape:current-layer="layer1"
     showgrid="false"
     inkscape:window-width="1250"
     inkscape:window-height="735"
     inkscape:window-x="-10"
     inkscape:window-y="179"
     inkscape:window-maximized="0" />
  <metadata
     id="metadata5938">
    <rdf:RDF>
      <cc:Work
         rdf:about="">
        <dc:format>image/svg+xml</dc:format>
        <dc:type
           rdf:resource="http://purl.org/dc/dcmitype/StillImage" />
        <dc:title></dc:title>
      </cc:Work>
    </rdf:RDF>
  </metadata>
  <g
     inkscape:label="Layer 1"
     inkscape:groupmode="layer"
     id="scissorsLayer"
     transform="translate(-103.57065,-91.120384)">
    <g
       id="scissors"
       transform="matrix(0.1934428,0.26206183,-0.26206183,0.1934428,377.04772,-99.44238)">
      <path
         id="imagebot_18-5"
         style="fill:#ffffff;stroke:#000000;stroke-width:4.06139994;stroke-linecap:round;stroke-linejoin:round"
         inkscape:connector-curvature="0"
         d="m 89.471,1065.9 c 3.727,6.1 -0.484,10 -6.16,12.9 -8.03,4.1 -27.898,2.1 -34.7,-2 -6.243,-3.8 -9.013,-9.3 -6.041,-14.2" />
      <path
         id="imagebot_17-3"
         style="fill:#ffffff;stroke:#000000;stroke-width:4.06139994;stroke-linecap:round;stroke-linejoin:round"
         inkscape:connector-curvature="0"
         d="m 21.354,1021 c -0.857,15.7 13.893,40.3 31.364,46.1 9.022,2.9 29.326,3.8 36.494,-1.5 12.278,-9 18.478,-20.7 21.288,-35.1 0.99,-5.1 1.24,-10.9 0.95,-15.7 -1.2892,-17.564 -14.828,-27.886 -20.606,-31.93 -0.182,-11.45 0.977,-25.25 2.816,-38.22 2.751,-19.4 -24.341,-14.51 -26.732,3.69 -1.119,8.52 -3.056,15.51 -5.109,34.59 -3.145,-10.28 -8.431,-25.04 -10.205,-35.24 -2.925,-16.83 -27.057,-6.74 -23.048,13.76 2.731,13.96 7.07,24.24 9.739,37.54 -2.806,2.21 -16.056,5.71 -16.951,22.01 z" />
      <path
         id="imagebot_16-7"
         style="fill:#000000;stroke-width:5.78100014"
         inkscape:connector-curvature="0"
         d="m 59.576,982.54 c 3.037,12.66 7.491,18.46 9.149,21.46 -2.12,-7.92 -2.868,-9.87 -4.494,-18.45 -0.275,-1.46 -0.356,-3.2 -0.116,-5.33 z" />
      <path
         id="imagebot_15-5"
         style="fill:#000000;stroke-width:5.78100014"
         inkscape:connector-curvature="0"
         d="m 88.815,982.97 c 0.126,7.64 2.111,16.81 4.971,22.53 -0.30609,-8.2722 -0.55595,-14.803 -1.0313,-22.676 -0.021,0 -1.961,0.15 -3.94,0.15 z" />
      <path
         id="imagebot_14-3"
         style="fill:none;stroke:#000000;stroke-width:4.06139994;stroke-linecap:round;stroke-linejoin:round"
         inkscape:connector-curvature="0"
         d="m 79.642,1058.3 c 4.036,-9.7 3.976,-12.5 5.195,-17.4" />
      <path
         id="imagebot_13-1"
         style="fill:none;stroke:#000000;stroke-width:4.06139994;stroke-linecap:round;stroke-linejoin:round"
         inkscape:connector-curvature="0"
         d="m 70.26,1059 c 1.693,-11.5 1.425,-17.2 1.856,-24.9" />
      <path
         id="imagebot_12-9"
         style="fill:none;stroke:#000000;stroke-width:4.06139994;stroke-linecap:round;stroke-linejoin:round"
         inkscape:connector-curvature="0"
         d="m 59.041,1059.5 c 0.098,-8 -0.598,-11.8 -1.048,-16.8" />
      <path
         id="imagebot_11-1"
         style="fill:#000000;stroke-width:5.78100014"
         inkscape:connector-curvature="0"
         d="m 36.025,998.02 c 3.892,16.78 -1.201,23.38 -4.587,31.88 5.145,-8.8 12.14,-11.8 8.841,-31.41 z" />
    </g>
  </g>
</svg>
